<svg version="1.1" id="Layer_1" xmlns="http://www.w3.org/2000/svg" xmlns:xlink="http://www.w3.org/1999/xlink" x="0px" y="0px"
	 width="100%" viewBox="0 0 1280 1280" enable-background="new 0 0 1280 1280" xml:space="preserve">
<path fill="#FEFFFF" opacity="1.000000" stroke="none" 
	d="
M560.000000,1281.000000 
	C373.333344,1281.000000 187.166672,1281.000000 1.000000,1281.000000 
	C1.000000,854.333313 1.000000,427.666656 1.000000,1.000000 
	C427.666656,1.000000 854.333313,1.000000 1281.000000,1.000000 
	C1281.000000,427.666656 1281.000000,854.333313 1281.000000,1281.000000 
	C1040.833374,1281.000000 800.666687,1281.000000 560.000000,1281.000000 
M440.411865,551.109192 
	C435.847229,555.404907 433.308929,560.654785 433.006744,566.977356 
	C433.006744,566.977356 432.943909,566.970581 432.260620,567.095032 
	C425.442963,569.177551 426.296783,575.967102 423.611389,581.149353 
	C421.280670,577.512085 419.037048,573.922485 418.144348,570.023621 
	C416.644073,563.471069 415.895813,556.735657 415.024292,550.052063 
	C413.588043,539.037903 412.334991,527.999695 410.892853,516.986328 
	C410.796661,516.251892 409.757965,515.640747 408.920715,514.371521 
	C408.852875,513.948486 408.785034,513.525513 409.383453,512.605225 
	C409.214935,507.918732 409.139343,503.224762 408.761810,498.555145 
	C408.713867,497.961731 407.086273,497.496033 406.020447,496.198029 
	C405.972198,495.145416 405.923950,494.092834 406.464722,492.580872 
	C406.387451,489.650970 409.994019,486.129181 404.922333,483.359222 
	C404.876556,482.937561 404.830750,482.515869 405.437103,481.579865 
	C406.067719,475.974518 406.684448,470.372375 401.572357,465.265961 
	C401.467773,464.610291 401.315460,463.958191 401.265930,463.298401 
	C400.703308,455.805786 400.457733,455.406158 393.020691,455.284363 
	C383.529327,455.128937 374.026184,455.015411 364.541168,455.307831 
	C349.710876,455.765045 353.315430,453.142853 350.194641,468.284363 
	C346.851410,484.505005 344.822449,500.992004 341.923676,517.310120 
	C339.548462,530.681152 336.514893,543.935913 334.184174,557.313843 
	C331.857941,570.665894 330.076263,584.112244 327.988373,597.506714 
	C327.044861,603.559448 325.881348,609.577637 324.915771,615.627136 
	C322.331207,631.819519 319.655426,647.999451 317.300415,664.225647 
	C315.853058,674.197937 314.806976,684.234314 313.835175,694.266602 
	C313.497589,697.751587 315.322388,699.869934 319.166870,699.863159 
	C330.825897,699.842590 342.485718,699.972839 354.143768,699.874023 
	C357.159912,699.848450 360.179626,699.198730 360.883514,695.405396 
	C361.910828,689.869141 363.080353,684.353394 363.903473,678.786560 
	C365.069794,670.898560 365.856079,662.954346 367.020020,655.065979 
	C369.000336,641.644775 371.327850,628.272949 373.173279,614.834229 
	C374.885162,602.368164 376.142578,589.839844 377.637207,577.343384 
	C377.898010,575.162659 378.342529,573.003906 378.702209,570.834961 
	C380.115845,573.044006 380.513123,575.239990 380.846680,577.445618 
	C384.868195,604.036804 388.913483,630.624390 392.858673,657.226929 
	C393.442688,661.164856 395.553741,663.256409 399.358032,663.478638 
	C406.477692,663.894531 413.612732,664.348938 420.733276,664.242798 
	C422.580902,664.215210 425.242737,662.612366 426.092377,660.983093 
	C431.439056,650.729675 436.409851,640.279236 441.447815,629.866211 
	C448.945648,614.368958 456.392700,598.847046 463.869812,583.339722 
	C465.249420,580.478455 466.668732,577.636353 468.069702,574.785400 
	C468.638855,574.986023 469.208008,575.186584 469.777161,575.387207 
	C468.494354,581.285828 467.016266,587.149902 465.966217,593.089722 
	C463.084259,609.392273 460.535980,625.754761 457.565247,642.040527 
	C454.621124,658.180725 451.130981,674.222473 448.282654,690.378357 
	C447.265472,696.147827 449.235626,700.130066 453.716370,700.041077 
	C466.040680,699.796509 478.374054,700.040527 490.703064,699.963806 
	C492.443726,699.953003 494.179993,699.230591 495.599365,698.909607 
	C496.835449,693.112549 498.180847,687.794983 499.079620,682.403015 
	C501.834808,665.874207 504.263916,649.290100 507.121002,632.779602 
	C509.181305,620.873535 511.944489,609.088501 513.981079,597.178894 
	C515.682922,587.226929 516.601807,577.143005 518.198669,567.170593 
	C520.323120,553.903625 522.691040,540.673767 525.130249,527.460449 
	C525.756897,524.066162 527.275269,520.841614 527.975281,517.454590 
	C529.138855,511.823578 530.017395,506.131592 530.934937,500.452209 
	C533.050476,487.357452 535.166626,474.262390 537.175964,461.151093 
	C537.844299,456.789886 535.698608,455.081635 531.375122,455.419220 
	C528.399719,455.651550 525.388306,455.400452 522.392944,455.403442 
	C513.405273,455.412415 504.414368,455.328033 495.433289,455.582245 
	C494.099365,455.620026 492.313171,457.000458 491.590210,458.252716 
	C488.709351,463.242737 486.177063,468.433441 483.496124,473.539520 
	C476.894836,486.112183 470.393463,498.739136 463.633026,511.225708 
	C459.638062,518.604431 455.226196,525.757446 450.319855,533.106079 
	C448.807495,534.982971 447.639160,537.395142 445.715240,538.631653 
	C440.856384,541.754272 440.593140,546.210571 441.021545,551.012512 
	C441.021545,551.012512 441.135223,551.093567 440.411865,551.109192 
M839.112305,694.268921 
	C839.195129,694.318054 839.277893,694.367188 839.360657,694.416382 
	C839.240295,694.277649 839.119934,694.138855 838.976074,693.239380 
	C837.287720,689.298462 835.603271,685.355896 833.909363,681.417358 
	C832.988892,679.277222 832.052246,677.143982 830.902954,674.389038 
	C830.833984,673.957092 830.765015,673.525085 831.338562,672.672180 
	C831.433716,671.892456 831.773987,671.047485 831.586609,670.342834 
	C829.220947,661.443787 826.537109,652.621643 824.434998,643.662415 
	C822.807861,636.727356 823.097107,629.104309 820.348572,622.729553 
	C816.714905,614.301941 814.956116,605.643555 813.501526,596.821350 
	C812.844299,592.835083 814.056946,589.263123 818.349609,587.309753 
	C820.825928,586.182922 823.217285,584.628540 825.247314,582.818481 
	C828.257874,580.134155 830.735840,576.850647 833.758118,574.181702 
	C839.942688,568.719971 841.445312,561.048950 843.948853,553.386230 
	C843.948853,553.386230 844.154541,553.025085 844.827637,552.885498 
	C847.544678,546.700562 851.957031,540.693970 852.630432,534.293945 
	C854.090637,520.418030 853.976624,506.334656 853.719238,492.350586 
	C853.658447,489.051208 855.703430,483.722687 849.977661,482.027252 
	C849.977661,482.027252 849.901184,482.125702 849.897095,481.659393 
	C849.794983,481.343201 849.591980,481.117981 849.028320,480.317810 
	C845.435303,473.301605 839.846130,468.582031 833.055725,464.551086 
	C821.833435,457.889343 809.365417,457.011353 797.111450,456.289459 
	C778.701416,455.204895 760.204041,455.540100 741.742920,455.418488 
	C735.686890,455.378571 733.751221,457.338531 732.889648,463.444641 
	C732.036133,469.493591 731.323486,475.565063 730.341064,481.592712 
	C727.700562,497.792023 724.883545,513.962646 722.261658,530.164917 
	C720.090942,543.579163 718.337769,557.065002 715.946716,570.438171 
	C714.216980,580.112122 711.408508,589.593567 709.692688,599.269409 
	C707.728760,610.344116 706.472778,621.543457 704.852722,632.680359 
	C702.593018,648.214355 700.245361,663.735718 698.008423,679.272949 
	C697.075806,685.751038 696.331360,692.256287 695.455750,699.105957 
	C698.675598,699.436890 700.965454,699.864502 703.257263,699.875183 
	C714.570007,699.927917 725.883667,699.917969 737.196167,699.831055 
	C742.790588,699.788086 744.401062,698.243835 745.021606,692.755310 
	C746.399048,680.572083 747.546326,668.357910 749.197449,656.212036 
	C750.614624,645.786560 752.601196,635.438599 755.123413,624.989990 
	C755.742920,623.169312 756.797607,621.372559 756.899109,619.523499 
	C757.188416,614.252686 756.164673,608.751648 760.540710,604.102966 
	C762.062317,606.595398 764.226807,608.772339 764.792297,611.306091 
	C767.144836,621.847290 768.966736,632.505676 771.086670,643.100464 
	C771.966858,647.499573 773.166870,651.833740 774.113586,656.220764 
	C775.648193,663.331726 777.095276,670.461548 778.575989,677.584167 
	C778.845215,678.878723 778.669678,680.561523 779.430237,681.409790 
	C784.098145,686.615417 785.008850,693.278259 786.716003,699.598755 
	C787.630798,702.985535 789.728699,703.441650 792.676514,703.214478 
	C799.041321,702.723999 805.477844,702.785645 811.769531,701.847473 
	C816.607544,701.126038 821.269165,699.222168 826.641479,697.654114 
	C827.074341,697.708374 827.507141,697.762634 828.318542,698.422607 
	C834.085693,702.277283 835.979126,696.777161 839.112305,694.268921 
M461.530090,763.961426 
	C458.219177,764.279907 454.905457,764.571594 451.597809,764.921021 
	C425.450623,767.682922 399.179382,769.609009 373.191528,773.450928 
	C344.117554,777.749084 315.220703,783.388794 286.396149,789.187256 
	C261.158478,794.264038 236.108749,800.287048 211.012817,806.052307 
	C195.952347,809.512024 181.009232,813.488525 165.928970,816.854736 
	C147.454376,820.978577 128.947159,825.001038 110.350571,828.520630 
	C93.149521,831.776245 75.794594,834.197510 58.330952,830.126587 
	C40.920448,826.067932 32.823421,818.500305 31.183428,801.595642 
	C28.702051,776.018127 34.333107,751.287842 41.513996,726.939392 
	C45.033596,715.005310 48.764423,703.099487 53.146996,691.462280 
	C59.406651,674.840820 65.574120,658.105164 73.229942,642.111938 
	C80.449402,627.030273 89.265656,612.679504 97.879410,598.306763 
	C110.664497,576.973877 123.822418,555.862915 136.956375,534.741211 
	C143.870483,523.622131 151.069595,512.680237 158.141846,501.659546 
	C165.756287,489.794006 173.291748,477.876770 181.009354,466.078674 
	C190.348526,451.801727 199.897186,437.661865 209.243271,423.389374 
	C213.069794,417.545868 212.712006,410.671722 208.720322,406.802277 
	C202.308899,400.587250 196.897232,399.743195 190.107452,404.974152 
	C186.226837,407.963867 182.828751,411.832092 179.964966,415.841583 
	C171.781036,427.299591 163.913620,438.986389 156.046768,450.667450 
	C144.466812,467.861816 132.610977,484.887756 121.586128,502.433716 
	C110.722595,519.723022 100.321732,537.336975 90.500671,555.237976 
	C80.368958,573.705139 71.041466,592.620361 61.634811,611.475586 
	C56.445637,621.877075 51.550285,632.444519 46.995628,643.138672 
	C39.715633,660.231689 32.070168,677.229309 25.993378,694.757507 
	C20.083363,711.804626 15.469061,729.350952 11.200082,746.900391 
	C8.105383,759.622498 5.737499,772.630676 4.429255,785.650330 
	C2.808984,801.775391 7.718875,816.809570 14.760883,831.259216 
	C19.457579,840.896423 26.225401,848.354858 35.759895,853.077209 
	C51.902599,861.072693 69.450760,862.817078 86.870605,861.312683 
	C104.175644,859.818115 121.486969,856.746948 138.397659,852.703247 
	C167.323120,845.786560 195.920853,837.506165 224.689423,829.924377 
	C245.242859,824.507629 265.696320,818.567200 286.472351,814.175354 
	C313.625092,808.435608 340.976349,803.519897 368.383789,799.134155 
	C393.162354,795.169067 418.043976,791.222656 443.036041,789.360107 
	C483.039612,786.378723 523.154480,784.534668 563.255981,783.342346 
	C592.384888,782.476257 621.573059,783.161255 650.725586,783.675415 
	C673.703430,784.080750 696.728760,784.499329 719.623535,786.301758 
	C758.100525,789.331116 796.518372,793.200867 834.905151,797.248230 
	C853.249023,799.182312 871.491699,802.160156 889.729126,804.994019 
	C903.030579,807.060852 916.267456,809.564087 929.499207,812.053589 
	C949.087708,815.739014 968.721252,819.239014 988.194519,823.467468 
	C1004.905762,827.096130 1021.494141,831.360413 1037.999512,835.848694 
	C1055.127075,840.506226 1072.220215,845.371765 1089.085571,850.888672 
	C1104.068481,855.789795 1118.936768,861.191101 1133.456665,867.317566 
	C1149.034180,873.890259 1164.584351,880.781189 1179.326172,889.003906 
	C1191.707031,895.909790 1203.282104,904.449707 1214.501221,913.181946 
	C1221.893066,918.935364 1228.764404,925.733887 1234.516235,933.117981 
	C1240.880615,941.288513 1245.530151,950.775391 1251.296631,959.442627 
	C1253.149048,962.226868 1255.816162,964.923157 1258.742310,966.445679 
	C1265.082153,969.744446 1271.877563,968.102600 1276.397217,963.054688 
	C1279.654785,959.416321 1279.665649,950.801758 1276.623901,945.116089 
	C1270.381104,933.446655 1261.687134,923.726807 1252.727417,914.135437 
	C1240.414551,900.954590 1226.624878,889.626343 1211.282959,880.227417 
	C1201.798340,874.417053 1192.226196,868.684143 1182.329346,863.629517 
	C1171.717651,858.209717 1160.782471,853.380249 1149.794556,848.753845 
	C1140.790894,844.962891 1131.593750,841.573975 1122.321045,838.492065 
	C1104.671021,832.625916 1087.023682,826.696228 1069.156616,821.552917 
	C1049.373047,815.857849 1029.385864,810.848022 1009.409424,805.851746 
	C993.784241,801.943848 978.113159,798.149475 962.329956,794.960876 
	C942.797852,791.014893 923.158630,787.570374 903.509399,784.241638 
	C887.453613,781.521545 871.350952,779.014526 855.203979,776.913574 
	C836.893433,774.530945 818.530823,772.496643 800.153687,770.689636 
	C775.157532,768.231934 750.148071,765.834839 725.101990,763.985107 
	C708.333984,762.746704 691.497253,762.333862 674.682678,761.852173 
	C642.053406,760.917175 609.406860,759.243164 576.788269,759.630798 
	C538.671204,760.083801 500.576324,762.411804 461.530090,763.961426 
M622.950928,685.455383 
	C623.235779,689.101990 623.580627,692.745239 623.785706,696.396301 
	C623.937988,699.109436 625.231018,700.104675 627.939209,700.076965 
	C641.259033,699.940308 654.580322,699.881531 667.900696,699.920715 
	C670.927734,699.929626 672.059998,698.787476 671.964661,695.767151 
	C671.234924,672.644043 670.655518,649.516174 669.903931,626.393799 
	C668.925293,596.284241 667.907837,566.175537 666.762939,536.071960 
	C665.821716,511.320770 664.599060,486.580200 663.676147,461.828430 
	C663.504944,457.237793 661.322083,455.687683 657.149231,455.695160 
	C644.828003,455.717194 632.506042,455.620575 620.186157,455.745575 
	C618.778320,455.759857 616.613708,456.505341 616.098877,457.551178 
	C610.913269,468.085022 605.770020,478.652161 601.061279,489.405426 
	C593.784058,506.024231 586.826599,522.783508 579.804932,539.513245 
	C578.409851,542.837158 577.458130,546.346008 576.089661,549.682495 
	C572.514709,558.398438 568.597046,566.979797 565.228088,575.772766 
	C559.811523,589.909912 554.936951,604.256226 549.435730,618.359009 
	C544.940796,629.882019 539.870056,641.180603 535.043823,652.574097 
	C533.429504,656.385010 531.759277,660.172424 530.153503,663.986877 
	C526.065552,673.697998 521.596497,683.275574 518.081970,693.190857 
	C516.101074,698.779419 517.319763,699.694885 523.417236,699.771545 
	C535.900330,699.928467 548.385925,699.935303 560.867126,700.176941 
	C568.765137,700.329773 569.301880,699.818909 572.215759,692.183716 
	C575.698853,683.057251 579.585510,674.080688 583.497192,665.126465 
	C584.053589,663.852844 585.746826,662.184021 586.895203,662.198364 
	C598.834778,662.347229 610.770569,662.803406 622.969482,663.182434 
	C622.969482,670.831848 622.969482,677.649780 622.950928,685.455383 
M973.500061,455.020355 
	C948.006897,455.000427 922.513306,455.052155 897.020630,454.931305 
	C883.617432,454.867767 883.622925,454.732269 881.334656,468.101135 
	C881.195068,468.916687 880.807434,469.689453 880.664490,470.504791 
	C879.094299,479.462982 877.495789,488.416840 876.031860,497.392578 
	C875.603638,500.017822 875.908813,502.656464 879.335571,502.985992 
	C882.951660,503.333740 886.598450,503.462128 890.233398,503.493103 
	C898.482971,503.563477 906.733521,503.515259 915.625244,503.515259 
	C914.875000,508.371094 914.386292,512.148132 913.694397,515.887451 
	C912.133606,524.322998 910.382080,532.723816 908.872437,541.168091 
	C906.462036,554.651550 904.417847,568.204590 901.779236,581.641785 
	C899.617371,592.650757 896.420410,603.460999 894.385498,614.489136 
	C891.021790,632.718506 888.261169,651.058594 885.171631,669.339294 
	C883.803345,677.435242 882.318176,685.513000 880.757690,693.574097 
	C879.928772,697.856201 881.463623,699.951294 885.861572,699.938721 
	C897.161926,699.906433 908.462280,699.918396 919.762573,699.875732 
	C927.588562,699.846130 928.860046,698.624878 930.008057,691.022034 
	C931.466980,681.360413 932.901428,671.688660 934.687927,662.084778 
	C937.048889,649.392212 939.693237,636.751465 942.302795,624.106384 
	C945.407227,609.063293 948.798706,594.076782 951.700012,578.995422 
	C954.070740,566.672363 955.899231,554.245117 957.986084,541.867065 
	C958.151001,540.889038 958.470398,539.937927 958.696167,538.969116 
	C961.156921,528.408203 963.873596,517.895996 965.907349,507.253265 
	C966.495544,504.175201 967.621033,503.213684 970.254211,503.244812 
	C979.200806,503.350494 988.148865,503.449127 997.091553,503.713745 
	C1000.076111,503.802063 1002.234131,503.271088 1002.822815,499.886963 
	C1005.036621,487.159912 1007.334106,474.447388 1009.550110,461.720734 
	C1010.235168,457.786469 1009.013489,455.341583 1004.486633,455.326355 
	C994.490906,455.292694 984.495667,455.120148 973.500061,455.020355 
M237.896118,323.266174 
	C237.656601,327.826477 235.964859,333.090820 240.586548,336.151184 
	C245.394897,339.335144 250.662277,337.825958 254.996216,334.590363 
	C258.116638,332.260712 260.751068,329.226379 263.382050,326.307831 
	C267.129883,322.150391 265.884644,316.766418 260.525879,314.859467 
	C257.461639,313.769012 254.067993,313.553894 250.801941,313.090851 
	C242.758286,311.950409 239.502792,314.382416 237.896118,323.266174 
z"/>
<path fill="#14BFDB" opacity="1.000000" stroke="none" 
	d="
M462.000946,763.943909 
	C500.576324,762.411804 538.671204,760.083801 576.788269,759.630798 
	C609.406860,759.243164 642.053406,760.917175 674.682678,761.852173 
	C691.497253,762.333862 708.333984,762.746704 725.101990,763.985107 
	C750.148071,765.834839 775.157532,768.231934 800.153687,770.689636 
	C818.530823,772.496643 836.893433,774.530945 855.203979,776.913574 
	C871.350952,779.014526 887.453613,781.521545 903.509399,784.241638 
	C923.158630,787.570374 942.797852,791.014893 962.329956,794.960876 
	C978.113159,798.149475 993.784241,801.943848 1009.409424,805.851746 
	C1029.385864,810.848022 1049.373047,815.857849 1069.156616,821.552917 
	C1087.023682,826.696228 1104.671021,832.625916 1122.321045,838.492065 
	C1131.593750,841.573975 1140.790894,844.962891 1149.794556,848.753845 
	C1160.782471,853.380249 1171.717651,858.209717 1182.329346,863.629517 
	C1192.226196,868.684143 1201.798340,874.417053 1211.282959,880.227417 
	C1226.624878,889.626343 1240.414551,900.954590 1252.727417,914.135437 
	C1261.687134,923.726807 1270.381104,933.446655 1276.623901,945.116089 
	C1279.665649,950.801758 1279.654785,959.416321 1276.397217,963.054688 
	C1271.877563,968.102600 1265.082153,969.744446 1258.742310,966.445679 
	C1255.816162,964.923157 1253.149048,962.226868 1251.296631,959.442627 
	C1245.530151,950.775391 1240.880615,941.288513 1234.516235,933.117981 
	C1228.764404,925.733887 1221.893066,918.935364 1214.501221,913.181946 
	C1203.282104,904.449707 1191.707031,895.909790 1179.326172,889.003906 
	C1164.584351,880.781189 1149.034180,873.890259 1133.456665,867.317566 
	C1118.936768,861.191101 1104.068481,855.789795 1089.085571,850.888672 
	C1072.220215,845.371765 1055.127075,840.506226 1037.999512,835.848694 
	C1021.494141,831.360413 1004.905762,827.096130 988.194519,823.467468 
	C968.721252,819.239014 949.087708,815.739014 929.499207,812.053589 
	C916.267456,809.564087 903.030579,807.060852 889.729126,804.994019 
	C871.491699,802.160156 853.249023,799.182312 834.905151,797.248230 
	C796.518372,793.200867 758.100525,789.331116 719.623535,786.301758 
	C696.728760,784.499329 673.703430,784.080750 650.725586,783.675415 
	C621.573059,783.161255 592.384888,782.476257 563.255981,783.342346 
	C523.154480,784.534668 483.039612,786.378723 443.036041,789.360107 
	C418.043976,791.222656 393.162354,795.169067 368.383789,799.134155 
	C340.976349,803.519897 313.625092,808.435608 286.472351,814.175354 
	C265.696320,818.567200 245.242859,824.507629 224.689423,829.924377 
	C195.920853,837.506165 167.323120,845.786560 138.397659,852.703247 
	C121.486969,856.746948 104.175644,859.818115 86.870605,861.312683 
	C69.450760,862.817078 51.902599,861.072693 35.759895,853.077209 
	C26.225401,848.354858 19.457579,840.896423 14.760883,831.259216 
	C7.718875,816.809570 2.808984,801.775391 4.429255,785.650330 
	C5.737499,772.630676 8.105383,759.622498 11.200082,746.900391 
	C15.469061,729.350952 20.083363,711.804626 25.993378,694.757507 
	C32.070168,677.229309 39.715633,660.231689 46.995628,643.138672 
	C51.550285,632.444519 56.445637,621.877075 61.634811,611.475586 
	C71.041466,592.620361 80.368958,573.705139 90.500671,555.237976 
	C100.321732,537.336975 110.722595,519.723022 121.586128,502.433716 
	C132.610977,484.887756 144.466812,467.861816 156.046768,450.667450 
	C163.913620,438.986389 171.781036,427.299591 179.964966,415.841583 
	C182.828751,411.832092 186.226837,407.963867 190.107452,404.974152 
	C196.897232,399.743195 202.308899,400.587250 208.720322,406.802277 
	C212.712006,410.671722 213.069794,417.545868 209.243271,423.389374 
	C199.897186,437.661865 190.348526,451.801727 181.009354,466.078674 
	C173.291748,477.876770 165.756287,489.794006 158.141846,501.659546 
	C151.069595,512.680237 143.870483,523.622131 136.956375,534.741211 
	C123.822418,555.862915 110.664497,576.973877 97.879410,598.306763 
	C89.265656,612.679504 80.449402,627.030273 73.229942,642.111938 
	C65.574120,658.105164 59.406651,674.840820 53.146996,691.462280 
	C48.764423,703.099487 45.033596,715.005310 41.513996,726.939392 
	C34.333107,751.287842 28.702051,776.018127 31.183428,801.595642 
	C32.823421,818.500305 40.920448,826.067932 58.330952,830.126587 
	C75.794594,834.197510 93.149521,831.776245 110.350571,828.520630 
	C128.947159,825.001038 147.454376,820.978577 165.928970,816.854736 
	C181.009232,813.488525 195.952347,809.512024 211.012817,806.052307 
	C236.108749,800.287048 261.158478,794.264038 286.396149,789.187256 
	C315.220703,783.388794 344.117554,777.749084 373.191528,773.450928 
	C399.179382,769.609009 425.450623,767.682922 451.597809,764.921021 
	C454.905457,764.571594 458.219177,764.279907 462.000946,763.943909 
z"/>
<path fill="#044AAB" opacity="1.000000" stroke="none" 
	d="
M622.960205,684.961548 
	C622.969482,677.649780 622.969482,670.831848 622.969482,663.182434 
	C610.770569,662.803406 598.834778,662.347229 586.895203,662.198364 
	C585.746826,662.184021 584.053589,663.852844 583.497192,665.126465 
	C579.585510,674.080688 575.698853,683.057251 572.215759,692.183716 
	C569.301880,699.818909 568.765137,700.329773 560.867126,700.176941 
	C548.385925,699.935303 535.900330,699.928467 523.417236,699.771545 
	C517.319763,699.694885 516.101074,698.779419 518.081970,693.190857 
	C521.596497,683.275574 526.065552,673.697998 530.153503,663.986877 
	C531.759277,660.172424 533.429504,656.385010 535.043823,652.574097 
	C539.870056,641.180603 544.940796,629.882019 549.435730,618.359009 
	C554.936951,604.256226 559.811523,589.909912 565.228088,575.772766 
	C568.597046,566.979797 572.514709,558.398438 576.089661,549.682495 
	C577.458130,546.346008 578.409851,542.837158 579.804932,539.513245 
	C586.826599,522.783508 593.784058,506.024231 601.061279,489.405426 
	C605.770020,478.652161 610.913269,468.085022 616.098877,457.551178 
	C616.613708,456.505341 618.778320,455.759857 620.186157,455.745575 
	C632.506042,455.620575 644.828003,455.717194 657.149231,455.695160 
	C661.322083,455.687683 663.504944,457.237793 663.676147,461.828430 
	C664.599060,486.580200 665.821716,511.320770 666.762939,536.071960 
	C667.907837,566.175537 668.925293,596.284241 669.903931,626.393799 
	C670.655518,649.516174 671.234924,672.644043 671.964661,695.767151 
	C672.059998,698.787476 670.927734,699.929626 667.900696,699.920715 
	C654.580322,699.881531 641.259033,699.940308 627.939209,700.076965 
	C625.231018,700.104675 623.937988,699.109436 623.785706,696.396301 
	C623.580627,692.745239 623.235779,689.101990 622.960205,684.961548 
M610.974915,571.288391 
	C609.776306,574.858154 608.526245,578.411621 607.389221,582.000854 
	C604.511597,591.085205 601.449219,600.122192 598.972168,609.315918 
	C598.163757,612.316406 597.925659,616.852722 602.073914,617.638794 
	C607.873291,618.737610 613.941284,618.942627 619.857483,618.684814 
	C622.910034,618.551697 626.352173,616.587036 625.889954,612.614502 
	C624.345825,599.342712 628.256348,586.329346 627.236328,573.008240 
	C626.548035,564.018066 628.297363,554.862305 628.419128,545.773499 
	C628.447754,543.636780 626.309387,541.471008 625.168030,539.318604 
	C623.448059,541.029785 620.986816,542.442993 620.155273,544.511353 
	C618.129150,549.551392 616.984558,554.937683 615.239990,560.101807 
	C614.047607,563.631409 612.442688,567.021606 610.974915,571.288391 
z"/>
<path fill="#044BAA" opacity="1.000000" stroke="none" 
	d="
M974.000122,455.012329 
	C984.495667,455.120148 994.490906,455.292694 1004.486633,455.326355 
	C1009.013489,455.341583 1010.235168,457.786469 1009.550110,461.720734 
	C1007.334106,474.447388 1005.036621,487.159912 1002.822815,499.886963 
	C1002.234131,503.271088 1000.076111,503.802063 997.091553,503.713745 
	C988.148865,503.449127 979.200806,503.350494 970.254211,503.244812 
	C967.621033,503.213684 966.495544,504.175201 965.907349,507.253265 
	C963.873596,517.895996 961.156921,528.408203 958.696167,538.969116 
	C958.470398,539.937927 958.151001,540.889038 957.986084,541.867065 
	C955.899231,554.245117 954.070740,566.672363 951.700012,578.995422 
	C948.798706,594.076782 945.407227,609.063293 942.302795,624.106384 
	C939.693237,636.751465 937.048889,649.392212 934.687927,662.084778 
	C932.901428,671.688660 931.466980,681.360413 930.008057,691.022034 
	C928.860046,698.624878 927.588562,699.846130 919.762573,699.875732 
	C908.462280,699.918396 897.161926,699.906433 885.861572,699.938721 
	C881.463623,699.951294 879.928772,697.856201 880.757690,693.574097 
	C882.318176,685.513000 883.803345,677.435242 885.171631,669.339294 
	C888.261169,651.058594 891.021790,632.718506 894.385498,614.489136 
	C896.420410,603.460999 899.617371,592.650757 901.779236,581.641785 
	C904.417847,568.204590 906.462036,554.651550 908.872437,541.168091 
	C910.382080,532.723816 912.133606,524.322998 913.694397,515.887451 
	C914.386292,512.148132 914.875000,508.371094 915.625244,503.515259 
	C906.733521,503.515259 898.482971,503.563477 890.233398,503.493103 
	C886.598450,503.462128 882.951660,503.333740 879.335571,502.985992 
	C875.908813,502.656464 875.603638,500.017822 876.031860,497.392578 
	C877.495789,488.416840 879.094299,479.462982 880.664490,470.504791 
	C880.807434,469.689453 881.195068,468.916687 881.334656,468.101135 
	C883.622925,454.732269 883.617432,454.867767 897.020630,454.931305 
	C922.513306,455.052155 948.006897,455.000427 974.000122,455.012329 
z"/>
<path fill="#215291" opacity="1.000000" stroke="none" 
	d="
M408.717163,513.102478 
	C408.785034,513.525513 408.852875,513.948486 408.994324,515.090698 
	C409.383301,517.601196 409.758759,519.384460 410.004852,521.185303 
	C412.533936,539.694092 414.992157,558.212769 417.591431,576.711670 
	C418.239716,581.325684 419.324402,585.878418 420.208527,590.459290 
	C420.604706,590.564209 421.000854,590.669128 421.397034,590.774048 
	C425.245972,582.839539 429.094940,574.905090 432.943909,566.970581 
	C432.943909,566.970581 433.006744,566.977356 433.255829,566.758545 
	C436.048340,561.390991 438.591766,556.242249 441.135193,551.093567 
	C441.135223,551.093567 441.021545,551.012512 441.339111,550.862793 
	C444.771729,544.812744 447.886749,538.912354 451.001770,533.011963 
	C455.226196,525.757446 459.638062,518.604431 463.633026,511.225708 
	C470.393463,498.739136 476.894836,486.112183 483.496124,473.539520 
	C486.177063,468.433441 488.709351,463.242737 491.590210,458.252716 
	C492.313171,457.000458 494.099365,455.620026 495.433289,455.582245 
	C504.414368,455.328033 513.405273,455.412415 522.392944,455.403442 
	C525.388306,455.400452 528.399719,455.651550 531.375122,455.419220 
	C535.698608,455.081635 537.844299,456.789886 537.175964,461.151093 
	C535.166626,474.262390 533.050476,487.357452 530.934937,500.452209 
	C530.017395,506.131592 529.138855,511.823578 527.975281,517.454590 
	C527.275269,520.841614 525.756897,524.066162 525.130249,527.460449 
	C522.691040,540.673767 520.323120,553.903625 518.198669,567.170593 
	C516.601807,577.143005 515.682922,587.226929 513.981079,597.178894 
	C511.944489,609.088501 509.181305,620.873535 507.121002,632.779602 
	C504.263916,649.290100 501.834808,665.874207 499.079620,682.403015 
	C498.180847,687.794983 496.835449,693.112549 495.599365,698.909607 
	C494.179993,699.230591 492.443726,699.953003 490.703064,699.963806 
	C478.374054,700.040527 466.040680,699.796509 453.716370,700.041077 
	C449.235626,700.130066 447.265472,696.147827 448.282654,690.378357 
	C451.130981,674.222473 454.621124,658.180725 457.565247,642.040527 
	C460.535980,625.754761 463.084259,609.392273 465.966217,593.089722 
	C467.016266,587.149902 468.494354,581.285828 469.777161,575.387207 
	C469.208008,575.186584 468.638855,574.986023 468.069702,574.785400 
	C466.668732,577.636353 465.249420,580.478455 463.869812,583.339722 
	C456.392700,598.847046 448.945648,614.368958 441.447815,629.866211 
	C436.409851,640.279236 431.439056,650.729675 426.092377,660.983093 
	C425.242737,662.612366 422.580902,664.215210 420.733276,664.242798 
	C413.612732,664.348938 406.477692,663.894531 399.358032,663.478638 
	C395.553741,663.256409 393.442688,661.164856 392.858673,657.226929 
	C388.913483,630.624390 384.868195,604.036804 380.846680,577.445618 
	C380.513123,575.239990 380.115845,573.044006 378.702209,570.834961 
	C378.342529,573.003906 377.898010,575.162659 377.637207,577.343384 
	C376.142578,589.839844 374.885162,602.368164 373.173279,614.834229 
	C371.327850,628.272949 369.000336,641.644775 367.020020,655.065979 
	C365.856079,662.954346 365.069794,670.898560 363.903473,678.786560 
	C363.080353,684.353394 361.910828,689.869141 360.883514,695.405396 
	C360.179626,699.198730 357.159912,699.848450 354.143768,699.874023 
	C342.485718,699.972839 330.825897,699.842590 319.166870,699.863159 
	C315.322388,699.869934 313.497589,697.751587 313.835175,694.266602 
	C314.806976,684.234314 315.853058,674.197937 317.300415,664.225647 
	C319.655426,647.999451 322.331207,631.819519 324.915771,615.627136 
	C325.881348,609.577637 327.044861,603.559448 327.988373,597.506714 
	C330.076263,584.112244 331.857941,570.665894 334.184174,557.313843 
	C336.514893,543.935913 339.548462,530.681152 341.923676,517.310120 
	C344.822449,500.992004 346.851410,484.505005 350.194641,468.284363 
	C353.315430,453.142853 349.710876,455.765045 364.541168,455.307831 
	C374.026184,455.015411 383.529327,455.128937 393.020691,455.284363 
	C400.457733,455.406158 400.703308,455.805786 401.265930,463.298401 
	C401.315460,463.958191 401.467773,464.610291 401.590698,466.075073 
	C402.667664,471.954224 403.726288,477.024200 404.784943,482.094208 
	C404.830750,482.515869 404.876556,482.937561 404.906952,484.096191 
	C405.219604,487.568848 405.547638,490.304535 405.875702,493.040222 
	C405.923950,494.092834 405.972198,495.145416 406.045441,496.995392 
	C406.952698,502.895996 407.834930,507.999237 408.717163,513.102478 
M462.969360,627.281006 
	C461.724915,633.713562 460.572510,640.165710 459.212158,646.573669 
	C457.603699,654.150635 455.790588,661.683960 454.137177,669.251770 
	C453.931488,670.193237 454.252411,671.237366 454.168182,672.220215 
	C453.996643,674.222656 453.859192,676.245422 453.452271,678.206909 
	C452.193176,684.276367 450.814209,690.320984 449.474976,696.406372 
	C451.427795,696.791504 451.908478,696.958801 452.393188,696.971375 
	C464.849701,697.296692 477.306061,697.640686 489.764618,697.848816 
	C490.721161,697.864807 492.274902,697.120667 492.560394,696.358643 
	C493.910309,692.755432 495.329498,689.091431 495.951477,685.321655 
	C497.012421,678.890930 497.253815,672.325745 498.294342,665.890625 
	C499.216370,660.188416 500.913147,654.616089 501.995819,648.934570 
	C505.417206,630.979858 508.933807,613.038574 511.976501,595.018188 
	C514.038635,582.805359 515.202271,570.443237 517.080261,558.195801 
	C518.277771,550.385925 520.138794,542.679871 521.508667,534.893127 
	C521.987549,532.170898 521.522705,529.265625 522.119263,526.584229 
	C523.916016,518.508545 526.234070,510.546570 527.946777,502.455170 
	C529.517456,495.034790 530.545898,487.500366 531.850708,480.022736 
	C532.873718,474.160553 534.049194,468.323242 534.969971,462.445557 
	C535.461426,459.308350 533.887329,458.000244 530.655151,457.936340 
	C521.028381,457.746063 511.404175,457.371460 501.782867,456.973999 
	C497.514557,456.797638 494.627655,458.370392 492.819305,462.416473 
	C491.349731,465.704529 489.214142,468.689362 487.472198,471.862640 
	C485.111359,476.163300 482.777344,480.481293 480.551819,484.852997 
	C476.546814,492.720184 472.779724,500.711853 468.637054,508.504730 
	C464.301788,516.659851 459.577637,524.607483 455.172119,532.726501 
	C454.178772,534.557129 454.121002,536.907654 453.080750,538.698303 
	C449.630341,544.637878 445.789429,550.351624 442.372375,556.309265 
	C440.184631,560.123657 438.549011,564.250732 436.535217,568.170471 
	C435.133545,570.898865 433.503174,573.509399 431.987091,576.179443 
	C429.236633,581.023499 426.668549,585.985779 423.631165,590.642273 
	C422.847107,591.844238 420.601166,592.092651 419.026733,592.779053 
	C418.360657,591.243347 417.328583,589.760498 417.097961,588.161987 
	C416.437103,583.581726 417.029114,578.605957 415.454346,574.414734 
	C411.540314,563.997620 412.175629,552.975769 410.187378,542.322571 
	C407.420227,527.495667 405.706696,512.467041 403.720551,497.501099 
	C402.329224,487.017303 401.103943,476.506897 400.068420,465.982452 
	C399.594238,461.163147 396.827698,458.029449 391.995178,457.980255 
	C384.832001,457.907379 377.668060,457.902954 370.504395,457.884857 
	C365.144867,457.871338 359.785248,457.882233 354.378387,457.882233 
	C353.024719,466.367035 351.884918,474.036652 350.564484,481.674988 
	C348.098938,495.937469 345.478455,510.173157 343.015381,524.436035 
	C340.457092,539.250244 338.084320,554.096741 335.480835,568.902771 
	C334.159637,576.416565 332.266113,583.833984 331.072052,591.364807 
	C329.726929,599.847961 328.591797,608.385986 327.880005,616.942993 
	C326.810638,629.798584 321.807892,642.003479 321.877228,655.037354 
	C321.892914,657.990295 321.328400,660.971069 320.800568,663.897461 
	C319.374329,671.805054 317.385529,679.638489 316.446533,687.598938 
	C315.510498,695.534607 318.240570,697.991028 326.287964,698.004700 
	C333.786194,698.017456 341.284912,698.055969 348.782654,697.995300 
	C356.479218,697.932983 358.738403,695.989136 360.019897,688.327698 
	C362.416168,674.001465 364.978058,659.697632 367.049500,645.323792 
	C368.991455,631.848511 370.475464,618.304565 371.996796,604.772400 
	C373.142120,594.584412 373.997314,584.364014 375.057495,574.166016 
	C375.244263,572.369446 375.487549,570.450134 376.285553,568.883362 
	C377.022491,567.436401 378.539185,566.386414 379.712463,565.161621 
	C380.800293,566.802490 382.595734,568.348206 382.831787,570.103638 
	C383.357025,574.009277 382.687042,578.078979 383.242157,581.976746 
	C384.961273,594.047119 387.003906,606.071838 388.962067,618.107544 
	C390.819550,629.524170 393.004730,640.896545 394.493317,652.360107 
	C395.187256,657.704163 398.567963,659.798096 402.757935,660.875854 
	C406.387787,661.809509 410.519897,662.554382 414.026154,661.708557 
	C417.528931,660.863647 422.689056,663.172119 424.477051,657.970825 
	C426.014221,653.499084 428.510712,649.690918 430.844879,645.646240 
	C435.583008,637.436096 438.729675,628.320618 442.773071,619.691101 
	C444.917877,615.113525 447.739929,610.856323 449.953827,606.307434 
	C455.128479,595.675171 459.955353,584.869141 465.361847,574.359192 
	C466.187927,572.753357 469.351440,572.349854 471.433868,571.390198 
	C471.600311,573.444763 471.934723,575.503845 471.879395,577.552429 
	C471.836121,579.154602 471.291321,580.740417 471.001007,582.339233 
	C470.098145,587.311035 469.222717,592.287842 468.314178,597.258606 
	C466.541199,606.958618 464.753052,616.655762 462.969360,627.281006 
z"/>
<path fill="#205190" opacity="1.000000" stroke="none" 
	d="
M844.154541,553.025085 
	C844.154541,553.025085 843.948853,553.386230 843.613892,553.754211 
	C842.304504,555.443665 841.059998,556.642822 840.397644,558.105591 
	C833.956177,572.330688 824.559814,583.542236 809.362305,588.830383 
	C810.610046,595.407166 811.534180,601.894958 813.104004,608.222534 
	C816.592102,622.283203 820.338989,636.281006 824.109009,650.269836 
	C826.169189,657.914124 828.491760,665.487671 830.696045,673.093140 
	C830.765015,673.525085 830.833984,673.957092 830.963135,675.114380 
	C831.750977,679.366760 832.043640,683.056519 833.290283,686.389465 
	C836.588867,695.208557 836.588318,695.504028 827.940002,697.816833 
	C827.507141,697.762634 827.074341,697.708374 825.892090,697.625671 
	C815.065552,698.372620 804.977478,699.032776 794.916382,699.979187 
	C790.794495,700.366882 788.443604,698.154663 787.299500,694.946899 
	C785.255188,689.215759 783.644043,683.311646 782.164124,677.401611 
	C779.559509,667.000244 777.215698,656.533875 774.714417,646.106262 
	C772.406433,636.484436 770.097229,626.862122 767.666565,617.270935 
	C766.369873,612.154114 765.019226,607.030090 763.254639,602.065125 
	C762.716431,600.550964 760.719116,599.555298 759.390076,598.322205 
	C758.747986,598.584229 758.105896,598.846252 757.463745,599.108337 
	C756.421204,607.757629 755.378601,616.406982 754.336060,625.056335 
	C752.601196,635.438599 750.614624,645.786560 749.197449,656.212036 
	C747.546326,668.357910 746.399048,680.572083 745.021606,692.755310 
	C744.401062,698.243835 742.790588,699.788086 737.196167,699.831055 
	C725.883667,699.917969 714.570007,699.927917 703.257263,699.875183 
	C700.965454,699.864502 698.675598,699.436890 695.455750,699.105957 
	C696.331360,692.256287 697.075806,685.751038 698.008423,679.272949 
	C700.245361,663.735718 702.593018,648.214355 704.852722,632.680359 
	C706.472778,621.543457 707.728760,610.344116 709.692688,599.269409 
	C711.408508,589.593567 714.216980,580.112122 715.946716,570.438171 
	C718.337769,557.065002 720.090942,543.579163 722.261658,530.164917 
	C724.883545,513.962646 727.700562,497.792023 730.341064,481.592712 
	C731.323486,475.565063 732.036133,469.493591 732.889648,463.444641 
	C733.751221,457.338531 735.686890,455.378571 741.742920,455.418488 
	C760.204041,455.540100 778.701416,455.204895 797.111450,456.289459 
	C809.365417,457.011353 821.833435,457.889343 833.055725,464.551086 
	C839.846130,468.582031 845.435303,473.301605 849.130798,480.896973 
	C849.300598,481.852386 849.523254,482.068909 849.901184,482.125702 
	C849.901184,482.125702 849.977661,482.027252 849.935913,482.464630 
	C854.012146,498.447784 853.488953,514.155090 850.697754,529.744080 
	C849.283752,537.641785 846.383118,545.273254 844.154541,553.025085 
M715.160522,588.940552 
	C714.138000,593.056702 713.299805,597.229492 712.057617,601.278198 
	C708.634216,612.436218 709.891113,624.151123 707.344971,635.564331 
	C703.216736,654.069153 701.442688,673.093262 698.440674,691.860718 
	C697.890564,695.299438 698.372986,696.945068 702.101746,697.048828 
	C711.060059,697.298035 720.012634,697.849304 728.971497,697.962097 
	C740.318420,698.104919 743.493652,694.349731 744.125793,683.215271 
	C744.846497,670.521484 746.242126,657.845154 747.880432,645.230835 
	C749.216675,634.942627 751.294861,624.748413 753.134277,614.528748 
	C754.293030,608.090698 755.618042,601.682617 756.919617,594.998474 
	C760.417908,596.025146 762.936768,596.764343 764.762329,597.300110 
	C765.891235,600.892822 767.670837,604.001160 767.709290,607.130859 
	C767.858337,619.257568 774.045410,629.890564 775.644714,641.715271 
	C776.874207,650.805664 780.403809,659.583008 782.883911,668.506958 
	C785.369629,677.451050 787.735779,686.430298 790.400879,695.320190 
	C790.725342,696.402527 792.633423,697.814148 793.715576,697.739563 
	C803.440918,697.069336 813.195740,696.460449 822.842163,695.116821 
	C832.218933,693.810730 832.117126,693.452637 829.968567,684.505554 
	C827.584106,674.576172 825.375061,664.604309 822.946167,654.686096 
	C821.816101,650.071350 820.291565,645.554565 819.055359,640.963867 
	C818.460693,638.755737 818.207642,636.457153 817.648071,634.237793 
	C815.806274,626.931641 813.866028,619.650330 812.019226,612.345398 
	C810.458130,606.170776 809.099976,599.942017 807.413757,593.802673 
	C806.231873,589.499451 808.211975,586.673584 812.282532,584.239380 
	C817.489990,581.125366 822.786865,577.579956 826.721191,573.066345 
	C831.504211,567.579041 835.275696,561.091309 838.804810,554.663025 
	C842.306152,548.285095 846.359436,541.709717 847.687378,534.747314 
	C850.151978,521.825500 851.607300,508.681427 850.194702,495.303864 
	C849.223511,486.106232 845.718872,478.314026 839.641052,471.978577 
	C836.301758,468.497772 831.136169,466.710083 826.679993,464.376831 
	C822.529846,462.203888 817.695129,461.519958 813.331665,460.459991 
	C804.911926,458.414673 795.940491,458.275085 787.181091,458.075500 
	C772.523804,457.741516 757.849670,458.169128 743.190491,457.878510 
	C737.856750,457.772766 735.548157,460.177887 734.969543,464.946289 
	C734.372620,469.865021 734.264832,474.858459 733.417603,479.727814 
	C732.184998,486.812225 730.212402,493.770325 729.042236,500.862610 
	C727.269592,511.607086 726.055115,522.442993 724.336304,533.197327 
	C723.111389,540.861572 721.251221,548.424255 720.026917,556.088562 
	C718.324890,566.743347 716.952637,577.450806 715.160522,588.940552 
z"/>
<path fill="#DAF0FA" opacity="1.000000" stroke="none" 
	d="
M754.729736,625.023193 
	C755.378601,616.406982 756.421204,607.757629 757.463745,599.108337 
	C758.105896,598.846252 758.747986,598.584229 759.390076,598.322205 
	C760.719116,599.555298 762.716431,600.550964 763.254639,602.065125 
	C765.019226,607.030090 766.369873,612.154114 767.666565,617.270935 
	C770.097229,626.862122 772.406433,636.484436 774.714417,646.106262 
	C777.215698,656.533875 779.559509,667.000244 782.164124,677.401611 
	C783.644043,683.311646 785.255188,689.215759 787.299500,694.946899 
	C788.443604,698.154663 790.794495,700.366882 794.916382,699.979187 
	C804.977478,699.032776 815.065552,698.372620 825.575989,697.720642 
	C821.269165,699.222168 816.607544,701.126038 811.769531,701.847473 
	C805.477844,702.785645 799.041321,702.723999 792.676514,703.214478 
	C789.728699,703.441650 787.630798,702.985535 786.716003,699.598755 
	C785.008850,693.278259 784.098145,686.615417 779.430237,681.409790 
	C778.669678,680.561523 778.845215,678.878723 778.575989,677.584167 
	C777.095276,670.461548 775.648193,663.331726 774.113586,656.220764 
	C773.166870,651.833740 771.966858,647.499573 771.086670,643.100464 
	C768.966736,632.505676 767.144836,621.847290 764.792297,611.306091 
	C764.226807,608.772339 762.062317,606.595398 760.540710,604.102966 
	C756.164673,608.751648 757.188416,614.252686 756.899109,619.523499 
	C756.797607,621.372559 755.742920,623.169312 754.729736,625.023193 
z"/>
<path fill="#DAF0FA" opacity="1.000000" stroke="none" 
	d="
M831.017334,672.882690 
	C828.491760,665.487671 826.169189,657.914124 824.109009,650.269836 
	C820.338989,636.281006 816.592102,622.283203 813.104004,608.222534 
	C811.534180,601.894958 810.610046,595.407166 809.362305,588.830383 
	C824.559814,583.542236 833.956177,572.330688 840.397644,558.105591 
	C841.059998,556.642822 842.304504,555.443665 843.588806,553.960449 
	C841.445312,561.048950 839.942688,568.719971 833.758118,574.181702 
	C830.735840,576.850647 828.257874,580.134155 825.247314,582.818481 
	C823.217285,584.628540 820.825928,586.182922 818.349609,587.309753 
	C814.056946,589.263123 812.844299,592.835083 813.501526,596.821350 
	C814.956116,605.643555 816.714905,614.301941 820.348572,622.729553 
	C823.097107,629.104309 822.807861,636.727356 824.434998,643.662415 
	C826.537109,652.621643 829.220947,661.443787 831.586609,670.342834 
	C831.773987,671.047485 831.433716,671.892456 831.017334,672.882690 
z"/>
<path fill="#40BAC7" opacity="1.000000" stroke="none" 
	d="
M237.991028,322.861450 
	C239.502792,314.382416 242.758286,311.950409 250.801941,313.090851 
	C254.067993,313.553894 257.461639,313.769012 260.525879,314.859467 
	C265.884644,316.766418 267.129883,322.150391 263.382050,326.307831 
	C260.751068,329.226379 258.116638,332.260712 254.996216,334.590363 
	C250.662277,337.825958 245.394897,339.335144 240.586548,336.151184 
	C235.964859,333.090820 237.656601,327.826477 237.991028,322.861450 
M259.104340,318.102600 
	C257.519745,317.605682 255.926956,317.133392 254.351944,316.607819 
	C245.182281,313.547882 241.539291,315.387695 240.393463,324.839142 
	C240.023392,327.891724 241.474701,331.919891 243.534424,334.198822 
	C244.588379,335.364929 249.393570,334.493805 251.505997,333.066895 
	C255.833054,330.144104 259.487213,326.225128 263.465454,322.674408 
	C261.709503,320.662323 260.737671,319.548737 259.104340,318.102600 
z"/>
<path fill="#D8F1F9" opacity="1.000000" stroke="none" 
	d="
M432.602264,567.032837 
	C429.094940,574.905090 425.245972,582.839539 421.397034,590.774048 
	C421.000854,590.669128 420.604706,590.564209 420.208527,590.459290 
	C419.324402,585.878418 418.239716,581.325684 417.591431,576.711670 
	C414.992157,558.212769 412.533936,539.694092 410.004852,521.185303 
	C409.758759,519.384460 409.383301,517.601196 409.112762,515.391052 
	C409.757965,515.640747 410.796661,516.251892 410.892853,516.986328 
	C412.334991,527.999695 413.588043,539.037903 415.024292,550.052063 
	C415.895813,556.735657 416.644073,563.471069 418.144348,570.023621 
	C419.037048,573.922485 421.280670,577.512085 423.611389,581.149353 
	C426.296783,575.967102 425.442963,569.177551 432.602264,567.032837 
z"/>
<path fill="#DAF0FA" opacity="1.000000" stroke="none" 
	d="
M844.491089,552.955322 
	C846.383118,545.273254 849.283752,537.641785 850.697754,529.744080 
	C853.488953,514.155090 854.012146,498.447784 849.881836,482.495575 
	C855.703430,483.722687 853.658447,489.051208 853.719238,492.350586 
	C853.976624,506.334656 854.090637,520.418030 852.630432,534.293945 
	C851.957031,540.693970 847.544678,546.700562 844.491089,552.955322 
z"/>
<path fill="#DAF0FA" opacity="1.000000" stroke="none" 
	d="
M828.129272,698.119751 
	C836.588318,695.504028 836.588867,695.208557 833.290283,686.389465 
	C832.043640,683.056519 831.750977,679.366760 831.073120,675.423706 
	C832.052246,677.143982 832.988892,679.277222 833.909363,681.417358 
	C835.603271,685.355896 837.287720,689.298462 838.988037,693.619690 
	C839.000000,694.000000 839.000000,693.999634 839.000000,693.999634 
	C835.979126,696.777161 834.085693,702.277283 828.129272,698.119751 
z"/>
<path fill="#D8F1F9" opacity="1.000000" stroke="none" 
	d="
M450.660828,533.059021 
	C447.886749,538.912354 444.771729,544.812744 441.382843,550.917236 
	C440.593140,546.210571 440.856384,541.754272 445.715240,538.631653 
	C447.639160,537.395142 448.807495,534.982971 450.660828,533.059021 
z"/>
<path fill="#D8F1F9" opacity="1.000000" stroke="none" 
	d="
M440.773529,551.101379 
	C438.591766,556.242249 436.048340,561.390991 433.232178,566.737549 
	C433.308929,560.654785 435.847229,555.404907 440.773529,551.101379 
z"/>
<path fill="#D8F1F9" opacity="1.000000" stroke="none" 
	d="
M405.111023,481.837036 
	C403.726288,477.024200 402.667664,471.954224 401.726562,466.457764 
	C406.684448,470.372375 406.067719,475.974518 405.111023,481.837036 
z"/>
<path fill="#D8F1F9" opacity="1.000000" stroke="none" 
	d="
M409.050293,512.853882 
	C407.834930,507.999237 406.952698,502.895996 406.130432,497.381958 
	C407.086273,497.496033 408.713867,497.961731 408.761810,498.555145 
	C409.139343,503.224762 409.214935,507.918732 409.050293,512.853882 
z"/>
<path fill="#D8F1F9" opacity="1.000000" stroke="none" 
	d="
M406.170227,492.810547 
	C405.547638,490.304535 405.219604,487.568848 404.986877,484.404602 
	C409.994019,486.129181 406.387451,489.650970 406.170227,492.810547 
z"/>
<path fill="#DAF0FA" opacity="1.000000" stroke="none" 
	d="
M838.999756,694.000000 
	C839.119934,694.138855 839.240295,694.277649 839.360657,694.416382 
	C839.277893,694.367188 839.195129,694.318054 839.056152,694.134277 
	C839.000000,693.999634 839.000000,694.000000 838.999756,694.000000 
z"/>
<path fill="#DAF0FA" opacity="1.000000" stroke="none" 
	d="
M849.899170,481.892548 
	C849.523254,482.068909 849.300598,481.852386 849.260681,481.229919 
	C849.591980,481.117981 849.794983,481.343201 849.899170,481.892548 
z"/>
<path fill="#215492" opacity="1.000000" stroke="none" 
	d="
M610.998535,570.881226 
	C612.442688,567.021606 614.047607,563.631409 615.239990,560.101807 
	C616.984558,554.937683 618.129150,549.551392 620.155273,544.511353 
	C620.986816,542.442993 623.448059,541.029785 625.168030,539.318604 
	C626.309387,541.471008 628.447754,543.636780 628.419128,545.773499 
	C628.297363,554.862305 626.548035,564.018066 627.236328,573.008240 
	C628.256348,586.329346 624.345825,599.342712 625.889954,612.614502 
	C626.352173,616.587036 622.910034,618.551697 619.857483,618.684814 
	C613.941284,618.942627 607.873291,618.737610 602.073914,617.638794 
	C597.925659,616.852722 598.163757,612.316406 598.972168,609.315918 
	C601.449219,600.122192 604.511597,591.085205 607.389221,582.000854 
	C608.526245,578.411621 609.776306,574.858154 610.998535,570.881226 
M625.168091,574.423279 
	C625.168091,563.707947 625.168091,552.992615 625.168091,540.696472 
	C623.674805,542.761353 622.654541,543.659973 622.273499,544.776794 
	C617.419983,559.001831 612.598389,573.238342 607.896667,587.514160 
	C605.308777,595.371887 602.937256,603.301392 600.519348,611.214233 
	C599.652405,614.051514 600.616028,615.739014 603.766968,615.848755 
	C608.922302,616.028259 614.078064,616.200562 619.231323,616.428833 
	C622.601318,616.578125 624.057068,614.958374 624.139282,611.662720 
	C624.440979,599.564270 624.815552,587.467590 625.168091,574.423279 
z"/>
<path fill="#014AAD" opacity="1.000000" stroke="none" 
	d="
M462.970276,626.817566 
	C464.753052,616.655762 466.541199,606.958618 468.314178,597.258606 
	C469.222717,592.287842 470.098145,587.311035 471.001007,582.339233 
	C471.291321,580.740417 471.836121,579.154602 471.879395,577.552429 
	C471.934723,575.503845 471.600311,573.444763 471.433899,571.390259 
	C469.351440,572.349854 466.187927,572.753357 465.361847,574.359192 
	C459.955353,584.869141 455.128479,595.675171 449.953827,606.307434 
	C447.739929,610.856323 444.917877,615.113525 442.773071,619.691101 
	C438.729675,628.320618 435.583008,637.436096 430.844879,645.646240 
	C428.510712,649.690918 426.014221,653.499084 424.477051,657.970825 
	C422.689056,663.172119 417.528931,660.863647 414.026154,661.708557 
	C410.519897,662.554382 406.387787,661.809509 402.757935,660.875854 
	C398.567963,659.798096 395.187256,657.704163 394.493317,652.360107 
	C393.004730,640.896545 390.819550,629.524170 388.962067,618.107544 
	C387.003906,606.071838 384.961273,594.047119 383.242157,581.976746 
	C382.687042,578.078979 383.357025,574.009277 382.831787,570.103638 
	C382.595734,568.348206 380.800293,566.802490 379.712463,565.161621 
	C378.539185,566.386414 377.022491,567.436401 376.285553,568.883362 
	C375.487549,570.450134 375.244263,572.369446 375.057495,574.166016 
	C373.997314,584.364014 373.142120,594.584412 371.996796,604.772400 
	C370.475464,618.304565 368.991455,631.848511 367.049500,645.323792 
	C364.978058,659.697632 362.416168,674.001465 360.019897,688.327698 
	C358.738403,695.989136 356.479218,697.932983 348.782654,697.995300 
	C341.284912,698.055969 333.786194,698.017456 326.287964,698.004700 
	C318.240570,697.991028 315.510498,695.534607 316.446533,687.598938 
	C317.385529,679.638489 319.374329,671.805054 320.800568,663.897461 
	C321.328400,660.971069 321.892914,657.990295 321.877228,655.037354 
	C321.807892,642.003479 326.810638,629.798584 327.880005,616.942993 
	C328.591797,608.385986 329.726929,599.847961 331.072052,591.364807 
	C332.266113,583.833984 334.159637,576.416565 335.480835,568.902771 
	C338.084320,554.096741 340.457092,539.250244 343.015381,524.436035 
	C345.478455,510.173157 348.098938,495.937469 350.564484,481.674988 
	C351.884918,474.036652 353.024719,466.367035 354.378387,457.882233 
	C359.785248,457.882233 365.144867,457.871338 370.504395,457.884857 
	C377.668060,457.902954 384.832001,457.907379 391.995178,457.980255 
	C396.827698,458.029449 399.594238,461.163147 400.068420,465.982452 
	C401.103943,476.506897 402.329224,487.017303 403.720551,497.501099 
	C405.706696,512.467041 407.420227,527.495667 410.187378,542.322571 
	C412.175629,552.975769 411.540314,563.997620 415.454346,574.414734 
	C417.029114,578.605957 416.437103,583.581726 417.097961,588.161987 
	C417.328583,589.760498 418.360657,591.243347 419.026733,592.779053 
	C420.601166,592.092651 422.847107,591.844238 423.631165,590.642273 
	C426.668549,585.985779 429.236633,581.023499 431.987091,576.179443 
	C433.503174,573.509399 435.133545,570.898865 436.535217,568.170471 
	C438.549011,564.250732 440.184631,560.123657 442.372375,556.309265 
	C445.789429,550.351624 449.630341,544.637878 453.080750,538.698303 
	C454.121002,536.907654 454.178772,534.557129 455.172119,532.726501 
	C459.577637,524.607483 464.301788,516.659851 468.637054,508.504730 
	C472.779724,500.711853 476.546814,492.720184 480.551819,484.852997 
	C482.777344,480.481293 485.111359,476.163300 487.472198,471.862640 
	C489.214142,468.689362 491.349731,465.704529 492.819305,462.416473 
	C494.627655,458.370392 497.514557,456.797638 501.782867,456.973999 
	C511.404175,457.371460 521.028381,457.746063 530.655151,457.936340 
	C533.887329,458.000244 535.461426,459.308350 534.969971,462.445557 
	C534.049194,468.323242 532.873718,474.160553 531.850708,480.022736 
	C530.545898,487.500366 529.517456,495.034790 527.946777,502.455170 
	C526.234070,510.546570 523.916016,518.508545 522.119263,526.584229 
	C521.522705,529.265625 521.987549,532.170898 521.508667,534.893127 
	C520.138794,542.679871 518.277771,550.385925 517.080261,558.195801 
	C515.202271,570.443237 514.038635,582.805359 511.976501,595.018188 
	C508.933807,613.038574 505.417206,630.979858 501.995819,648.934570 
	C500.913147,654.616089 499.216370,660.188416 498.294342,665.890625 
	C497.253815,672.325745 497.012421,678.890930 495.951477,685.321655 
	C495.329498,689.091431 493.910309,692.755432 492.560394,696.358643 
	C492.274902,697.120667 490.721161,697.864807 489.764618,697.848816 
	C477.306061,697.640686 464.849701,697.296692 452.393188,696.971375 
	C451.908478,696.958801 451.427795,696.791504 449.474976,696.406372 
	C450.814209,690.320984 452.193176,684.276367 453.452271,678.206909 
	C453.859192,676.245422 453.996643,674.222656 454.168182,672.220215 
	C454.252411,671.237366 453.931488,670.193237 454.137177,669.251770 
	C455.790588,661.683960 457.603699,654.150635 459.212158,646.573669 
	C460.572510,640.165710 461.724915,633.713562 462.970276,626.817566 
z"/>
<path fill="#014AAD" opacity="1.000000" stroke="none" 
	d="
M715.299866,588.538086 
	C716.952637,577.450806 718.324890,566.743347 720.026917,556.088562 
	C721.251221,548.424255 723.111389,540.861572 724.336304,533.197327 
	C726.055115,522.442993 727.269592,511.607086 729.042236,500.862610 
	C730.212402,493.770325 732.184998,486.812225 733.417603,479.727814 
	C734.264832,474.858459 734.372620,469.865021 734.969543,464.946289 
	C735.548157,460.177887 737.856750,457.772766 743.190491,457.878510 
	C757.849670,458.169128 772.523804,457.741516 787.181091,458.075500 
	C795.940491,458.275085 804.911926,458.414673 813.331665,460.459991 
	C817.695129,461.519958 822.529846,462.203888 826.679993,464.376831 
	C831.136169,466.710083 836.301758,468.497772 839.641052,471.978577 
	C845.718872,478.314026 849.223511,486.106232 850.194702,495.303864 
	C851.607300,508.681427 850.151978,521.825500 847.687378,534.747314 
	C846.359436,541.709717 842.306152,548.285095 838.804810,554.663025 
	C835.275696,561.091309 831.504211,567.579041 826.721191,573.066345 
	C822.786865,577.579956 817.489990,581.125366 812.282532,584.239380 
	C808.211975,586.673584 806.231873,589.499451 807.413757,593.802673 
	C809.099976,599.942017 810.458130,606.170776 812.019226,612.345398 
	C813.866028,619.650330 815.806274,626.931641 817.648071,634.237793 
	C818.207642,636.457153 818.460693,638.755737 819.055359,640.963867 
	C820.291565,645.554565 821.816101,650.071350 822.946167,654.686096 
	C825.375061,664.604309 827.584106,674.576172 829.968567,684.505554 
	C832.117126,693.452637 832.218933,693.810730 822.842163,695.116821 
	C813.195740,696.460449 803.440918,697.069336 793.715576,697.739563 
	C792.633423,697.814148 790.725342,696.402527 790.400879,695.320190 
	C787.735779,686.430298 785.369629,677.451050 782.883911,668.506958 
	C780.403809,659.583008 776.874207,650.805664 775.644714,641.715271 
	C774.045410,629.890564 767.858337,619.257568 767.709290,607.130859 
	C767.670837,604.001160 765.891235,600.892822 764.762329,597.300110 
	C762.936768,596.764343 760.417908,596.025146 756.919617,594.998474 
	C755.618042,601.682617 754.293030,608.090698 753.134277,614.528748 
	C751.294861,624.748413 749.216675,634.942627 747.880432,645.230835 
	C746.242126,657.845154 744.846497,670.521484 744.125793,683.215271 
	C743.493652,694.349731 740.318420,698.104919 728.971497,697.962097 
	C720.012634,697.849304 711.060059,697.298035 702.101746,697.048828 
	C698.372986,696.945068 697.890564,695.299438 698.440674,691.860718 
	C701.442688,673.093262 703.216736,654.069153 707.344971,635.564331 
	C709.891113,624.151123 708.634216,612.436218 712.057617,601.278198 
	C713.299805,597.229492 714.138000,593.056702 715.299866,588.538086 
M804.833923,533.728943 
	C805.213318,525.027588 805.625366,516.327515 805.961304,507.624512 
	C806.214844,501.059692 803.797913,496.520752 797.311157,494.860535 
	C791.042664,493.256226 784.360657,492.878265 777.848755,492.787598 
	C774.838684,492.745728 772.194153,494.589417 771.888184,498.755371 
	C771.304016,506.707764 770.138245,514.621643 769.085083,522.534424 
	C767.726685,532.739746 766.151733,542.917297 764.921753,553.137146 
	C764.761414,554.469360 765.719360,556.453857 766.808411,557.321472 
	C770.055786,559.908508 782.017639,559.463745 785.736023,557.308655 
	C792.773315,553.230103 798.937744,548.585449 801.053223,540.072571 
	C801.557007,538.045166 803.285217,536.321960 804.833923,533.728943 
z"/>
<path fill="#0DC1DF" opacity="1.000000" stroke="none" 
	d="
M259.435089,318.268860 
	C260.737671,319.548737 261.709503,320.662323 263.465454,322.674408 
	C259.487213,326.225128 255.833054,330.144104 251.505997,333.066895 
	C249.393570,334.493805 244.588379,335.364929 243.534424,334.198822 
	C241.474701,331.919891 240.023392,327.891724 240.393463,324.839142 
	C241.539291,315.387695 245.182281,313.547882 254.351944,316.607819 
	C255.926956,317.133392 257.519745,317.605682 259.435089,318.268860 
z"/>
<path fill="#F1FAFB" opacity="1.000000" stroke="none" 
	d="
M625.165405,574.896729 
	C624.815552,587.467590 624.440979,599.564270 624.139282,611.662720 
	C624.057068,614.958374 622.601318,616.578125 619.231323,616.428833 
	C614.078064,616.200562 608.922302,616.028259 603.766968,615.848755 
	C600.616028,615.739014 599.652405,614.051514 600.519348,611.214233 
	C602.937256,603.301392 605.308777,595.371887 607.896667,587.514160 
	C612.598389,573.238342 617.419983,559.001831 622.273499,544.776794 
	C622.654541,543.659973 623.674805,542.761353 625.168091,540.696472 
	C625.168091,552.992615 625.168091,563.707947 625.165405,574.896729 
z"/>
<path fill="#1F5190" opacity="1.000000" stroke="none" 
	d="
M804.642090,534.093872 
	C803.285217,536.321960 801.557007,538.045166 801.053223,540.072571 
	C798.937744,548.585449 792.773315,553.230103 785.736023,557.308655 
	C782.017639,559.463745 770.055786,559.908508 766.808411,557.321472 
	C765.719360,556.453857 764.761414,554.469360 764.921753,553.137146 
	C766.151733,542.917297 767.726685,532.739746 769.085083,522.534424 
	C770.138245,514.621643 771.304016,506.707764 771.888184,498.755371 
	C772.194153,494.589417 774.838684,492.745728 777.848755,492.787598 
	C784.360657,492.878265 791.042664,493.256226 797.311157,494.860535 
	C803.797913,496.520752 806.214844,501.059692 805.961304,507.624512 
	C805.625366,516.327515 805.213318,525.027588 804.642090,534.093872 
M803.618958,514.068115 
	C803.392761,511.252319 803.332825,508.410828 802.902771,505.626495 
	C802.192749,501.029083 799.800476,497.390503 795.080627,496.492035 
	C790.218811,495.566559 785.209717,495.245026 780.252014,495.097809 
	C778.784119,495.054230 776.465210,496.136292 775.937134,497.324860 
	C774.551880,500.443115 773.609863,503.852905 773.080383,507.238647 
	C771.623291,516.555359 770.395874,525.910156 769.217407,535.267578 
	C768.376038,541.948364 767.760681,548.657593 767.066223,555.150146 
	C781.341980,560.652039 793.640625,551.166992 797.976624,541.248596 
	C801.502258,533.183777 805.026428,524.413391 803.618958,514.068115 
z"/>
<path fill="#F5FBFB" opacity="1.000000" stroke="none" 
	d="
M803.628540,514.517212 
	C805.026428,524.413391 801.502258,533.183777 797.976624,541.248596 
	C793.640625,551.166992 781.341980,560.652039 767.066223,555.150146 
	C767.760681,548.657593 768.376038,541.948364 769.217407,535.267578 
	C770.395874,525.910156 771.623291,516.555359 773.080383,507.238647 
	C773.609863,503.852905 774.551880,500.443115 775.937134,497.324860 
	C776.465210,496.136292 778.784119,495.054230 780.252014,495.097809 
	C785.209717,495.245026 790.218811,495.566559 795.080627,496.492035 
	C799.800476,497.390503 802.192749,501.029083 802.902771,505.626495 
	C803.332825,508.410828 803.392761,511.252319 803.628540,514.517212 
z"/>
</svg>